<svg width="46" height="46" viewBox="0 0 46 46" fill="none" xmlns="http://www.w3.org/2000/svg">
<circle cx="23" cy="23" r="20.5" fill="#3F5163" stroke="white" stroke-width="5"/>
<g clip-path="url(#clip0_1_389)">
<path d="M23.3074 30.9201C21.5617 30.8228 19.811 30.7828 18.0739 30.6082C16.7922 30.4834 16.3888 29.8396 16.5559 28.5483C16.9208 25.7124 19.0575 23.781 21.8883 23.7761C23.2492 23.7761 24.6176 23.7261 25.9538 23.9133C28.4048 24.2576 30.2507 26.6257 30.1987 29.1297C30.1851 29.7673 29.9166 30.2289 29.3215 30.4135C28.7971 30.5936 28.2512 30.7023 27.6983 30.7367C26.2371 30.7803 24.7747 30.7516 23.3123 30.7516L23.3074 30.9201Z" fill="white"/>
<path d="M23.201 14.3589C25.4849 14.3589 27.3705 16.2104 27.3804 18.4761C27.3903 20.7418 25.4961 22.6333 23.1738 22.637C20.9159 22.637 19.0291 20.7506 19.0266 18.4836C19.0241 16.2166 20.9097 14.3589 23.201 14.3589Z" fill="white"/>
</g>
<defs>
<clipPath id="clip0_1_389">
<rect width="13.68" height="16.56" fill="white" transform="translate(16.52 14.3601)"/>
</clipPath>
</defs>
</svg>
