<svg width="80" height="80" viewBox="0 0 80 80" fill="none" xmlns="http://www.w3.org/2000/svg">
<rect width="80" height="80" rx="40" fill="#3F5163"/>
<path d="M59 40.2799C59 45.2311 57.026 49.9802 53.5108 53.4863C49.9955 56.9924 45.2258 58.9694 40.2473 58.9838C29.9832 58.9838 21.5707 50.5463 21.5749 40.2715C21.5732 37.818 22.0575 35.3883 23.0001 33.1209C23.9426 30.8536 25.325 28.793 27.0684 27.057C28.8117 25.321 30.8818 23.9434 33.1604 23.003C35.4391 22.0625 37.8816 21.5776 40.3487 21.576C45.3111 21.6126 50.0574 23.5999 53.5517 27.1041C57.046 30.6083 59.0046 35.3448 59 40.2799ZM32.8451 27.7938L32.6253 27.9368C29.9465 29.5839 27.8661 32.0382 26.6869 34.9425C25.5076 37.8467 25.291 41.0494 26.0686 44.0846C26.5472 46.024 27.4266 47.843 28.6508 49.426C29.875 51.0089 31.4171 52.3211 33.1791 53.2789C36.1298 54.9636 39.5919 55.5352 42.9317 54.8891C45.34 54.4691 47.596 53.4299 49.4757 51.8748C51.043 50.6344 52.3354 49.085 53.2717 47.324C54.208 45.5631 54.7679 43.6285 54.9163 41.642C55.1378 39.1206 54.672 36.5864 53.5678 34.3059C52.9324 32.9499 52.0848 31.7026 51.0567 30.6105C50.9347 30.4653 50.7688 30.3631 50.5838 30.3192C50.3987 30.2752 50.2043 30.2919 50.0295 30.3667C49.3573 30.64 49.2178 31.3673 49.742 31.9516C51.2398 33.6078 52.2747 35.6256 52.7434 37.8037C52.866 38.3797 52.9379 38.9641 53.0394 39.582C52.6716 39.582 52.3672 39.582 52.0586 39.582C51.9339 39.5774 51.8096 39.5983 51.6933 39.6435C51.5771 39.6886 51.4715 39.7571 51.383 39.8447C51.2946 39.9323 51.2253 40.037 51.1793 40.1524C51.1333 40.2677 51.1117 40.3913 51.1159 40.5153C51.1144 40.6391 51.1388 40.7619 51.1874 40.8759C51.2361 40.9898 51.3079 41.0925 51.3985 41.1775C51.4891 41.2624 51.5964 41.3278 51.7136 41.3694C51.8309 41.411 51.9556 41.428 52.0797 41.4192H52.9844C52.7054 47.389 47.5649 52.8249 41.2153 53.1906V52.93C41.2153 52.6525 41.2153 52.375 41.2153 52.0892C41.1955 51.8939 41.1093 51.7113 40.9709 51.5714C40.8326 51.4315 40.6504 51.3428 40.4544 51.3198C40.3238 51.2969 40.1897 51.3029 40.0617 51.3376C39.9336 51.3722 39.8149 51.4345 39.7139 51.52C39.613 51.6056 39.5322 51.7123 39.4776 51.8325C39.4229 51.9527 39.3955 52.0834 39.3976 52.2153C39.3976 52.539 39.3976 52.8669 39.3976 53.1906C32.7183 52.7282 27.8652 47.0779 27.6201 41.4192C27.9498 41.4192 28.2795 41.4192 28.6093 41.4192C28.8297 41.414 29.0406 41.3285 29.2019 41.179C29.3632 41.0294 29.4637 40.8262 29.4843 40.6078C29.5109 40.3976 29.4624 40.1848 29.3473 40.0065C29.2322 39.8283 29.0577 39.6959 28.8544 39.6325C28.6935 39.5967 28.529 39.5798 28.3641 39.582C28.1104 39.582 27.8568 39.582 27.5693 39.582C27.7284 37.5839 28.3499 35.6493 29.3854 33.9296C30.4209 32.2099 31.8423 30.7517 33.5384 29.6688L33.5934 29.6983L32.8155 31.8255L34.3078 32.3384L36.0917 27.2935L31.0189 25.511L30.5031 27.0034L32.8451 27.7938ZM38.3027 40.5153C38.3313 41.0261 38.5358 41.5115 38.8818 41.8901C39.1685 42.2128 39.5574 42.4283 39.9842 42.501C40.4109 42.5736 40.8498 42.499 41.228 42.2895C41.6052 42.0865 41.9036 41.7641 42.0759 41.3735C42.2481 40.9829 42.2845 40.5463 42.1792 40.1328C42.1738 40.0859 42.1786 40.0383 42.1932 39.9934C42.2078 39.9484 42.2318 39.9071 42.2637 39.8721C43.0162 39.107 43.7771 38.346 44.5381 37.5893L47.7424 34.3942C47.8889 34.2472 47.9853 34.0581 48.0179 33.8537C48.0505 33.6493 48.0177 33.4398 47.9242 33.2549C47.8388 33.0804 47.6952 32.9408 47.518 32.8596C47.3408 32.7783 47.1408 32.7606 46.9519 32.8093C46.7351 32.8606 46.5364 32.9696 46.377 33.1246C44.6353 34.8426 42.9035 36.5733 41.1815 38.3166C41.0935 38.4462 40.9653 38.5434 40.8164 38.5935C40.6675 38.6437 40.5062 38.6438 40.3572 38.5941C40.1858 38.555 40.0281 38.4708 39.9006 38.3502C39.4779 37.8878 39.0044 37.4379 38.5563 36.9839L36.4426 34.8525C36.32 34.7224 36.1621 34.6305 35.988 34.5879C35.8139 34.5454 35.6311 34.554 35.4619 34.6128C35.3156 34.6513 35.1832 34.7302 35.08 34.8403C34.9767 34.9503 34.9069 35.0872 34.8785 35.235C34.8351 35.4067 34.8393 35.5869 34.8906 35.7565C34.942 35.926 35.0386 36.0785 35.1702 36.1977C36.2397 37.2614 37.305 38.3334 38.3788 39.3971C38.4434 39.4436 38.4891 39.5115 38.5077 39.5886C38.5263 39.6657 38.5166 39.7469 38.4802 39.8175C38.4033 40.0453 38.344 40.2786 38.3027 40.5153Z" fill="white"/>
</svg>
