<svg width="36" height="36" viewBox="0 0 36 36" fill="none" xmlns="http://www.w3.org/2000/svg">
<circle cx="18" cy="18" r="18" fill="#3F5163"/>
<path d="M8.99955 10.0022C9.87925 10.0022 10.7594 10.0047 11.6391 9.99927C11.7606 9.99927 11.8228 10.0293 11.8729 10.1458C12.0762 10.6179 12.2991 11.0812 12.4991 11.5542C12.5547 11.6861 12.6311 11.7007 12.7496 11.7007C16.8223 11.6987 20.8951 11.6987 24.9681 11.7007C25.0399 11.7007 25.1121 11.7007 25.1835 11.704C25.7171 11.742 26.0302 12.0964 25.9977 12.6307C25.9936 12.7021 25.974 12.7718 25.9401 12.8348C25.4582 13.6918 24.9689 14.5441 24.4892 15.4019C23.9277 16.4037 23.3619 17.4055 22.8212 18.4203C22.4722 19.0756 21.9378 19.3574 21.2159 19.3561C19.2181 19.3524 17.2203 19.3561 15.2226 19.3515C15.0827 19.3515 15.0059 19.3887 14.942 19.5185C14.7474 19.9092 14.5374 20.292 14.3345 20.6785C14.2034 20.929 14.2798 21.0567 14.5595 21.0567H24.2938V22.7539H24.1389C20.8022 22.7539 17.4653 22.7539 14.1283 22.7539C13.1922 22.7539 12.4536 22.0593 12.4069 21.1289C12.3857 20.7509 12.4748 20.3749 12.6632 20.0465C13.0014 19.4566 13.3442 18.8696 13.6915 18.2854C13.7165 18.2503 13.731 18.2087 13.7333 18.1656C13.7356 18.1226 13.7256 18.0797 13.7045 18.0421C12.7205 15.9717 11.7387 13.9002 10.7589 11.8276C10.7147 11.7341 10.6629 11.6998 10.559 11.7023C10.0387 11.7065 9.51852 11.7023 8.99872 11.7023L8.99955 10.0022Z" fill="white"/>
<path d="M13.8809 27.0001C13.5502 26.922 13.2471 26.7943 12.9807 26.5722C12.1257 25.8584 12.2426 24.4208 13.2079 23.859C14.3138 23.2166 15.6181 23.8552 15.7893 25.1225C15.9004 25.9461 15.2787 26.7922 14.4387 26.9646C14.3969 26.9733 14.3552 26.9871 14.3134 26.9984L13.8809 27.0001Z" fill="white"/>
<path d="M22.3818 27.0001C22.0511 26.922 21.748 26.7943 21.4821 26.5722C20.6266 25.8584 20.7435 24.4208 21.7092 23.859C22.8152 23.2166 24.1195 23.8552 24.2903 25.1225C24.4013 25.9461 23.7796 26.7922 22.9396 26.9646C22.8979 26.9733 22.8561 26.9871 22.8144 26.9984L22.3818 27.0001Z" fill="white"/>
</svg>
