<svg width="25" height="25" viewBox="0 0 25 25" fill="none" xmlns="http://www.w3.org/2000/svg">
<path d="M0 1.90555C0 1.3639 0.439096 0.924805 0.98075 0.924805H2.81952C4.09993 0.924805 5.19893 1.83634 5.43565 3.09467L5.66002 4.28738H23.1781C24.3132 4.28738 25.1718 5.31442 24.9706 6.43157L23.7596 13.1567C23.6033 14.0242 22.8484 14.6553 21.967 14.6553H7.7846L7.94696 15.4432C8.12136 16.2897 8.86662 16.897 9.73086 16.897H21.9968C22.5385 16.897 22.9776 17.3361 22.9776 17.8778C22.9776 18.4194 22.5385 18.8585 21.9968 18.8585H9.73086C7.93589 18.8585 6.38804 17.5971 6.02581 15.839L3.85793 5.31767L3.50797 3.45732C3.44568 3.1262 3.15645 2.8863 2.81952 2.8863H0.98075C0.439096 2.8863 0 2.44721 0 1.90555Z" fill="white"/>
<path d="M13.0304 21.941C13.0304 23.1016 12.0894 24.0426 10.9288 24.0426C9.76808 24.0426 8.82715 23.1016 8.82715 21.941C8.82715 20.7803 9.76808 19.8394 10.9288 19.8394C12.0894 19.8394 13.0304 20.7803 13.0304 21.941Z" fill="white"/>
<path d="M21.9967 21.941C21.9967 23.1016 21.0557 24.0426 19.8951 24.0426C18.7344 24.0426 17.7935 23.1016 17.7935 21.941C17.7935 20.7803 18.7344 19.8394 19.8951 19.8394C21.0557 19.8394 21.9967 20.7803 21.9967 21.941Z" fill="white"/>
</svg>
