<svg width="63" height="67" viewBox="0 0 63 67" fill="none" xmlns="http://www.w3.org/2000/svg">
<path d="M62.2141 47.0075C62.2111 44.16 61.3168 41.3843 59.6568 39.0724C57.9997 36.7574 55.6607 35.0195 52.9658 34.0983V16.9654C52.9687 15.7929 52.544 14.6623 51.7693 13.7829L40.8939 1.59123C39.9846 0.577272 38.6895 0 37.3286 0H4.78571C2.14163 0 0 2.14163 0 4.78571V62.2143C0 63.4825 0.505494 64.6999 1.40279 65.5972C2.30008 66.4946 3.51746 67 4.78571 67H48.1803C49.4485 67 50.6659 66.4945 51.5632 65.5972C52.4605 64.6999 52.966 63.4825 52.966 62.2143V59.9052C55.6609 58.9899 57.9999 57.2522 59.66 54.94C61.3171 52.6279 62.2111 49.8518 62.2141 47.0075ZM48.9098 14.2012H40.6784C40.0174 14.2012 39.482 13.6658 39.482 13.0048V3.58883L48.9098 14.2012ZM50.5729 62.2138C50.5729 62.8479 50.3217 63.4581 49.873 63.9067C49.4243 64.3554 48.8142 64.6067 48.1801 64.6067H4.78551C3.46343 64.6067 2.39266 63.5359 2.39266 62.2138V4.78522C2.39266 3.46314 3.46343 2.39237 4.78551 2.39237H37.0895V13.0044C37.0895 14.9874 38.6957 16.5937 40.6787 16.5937H50.5136V33.5351C49.8615 33.4304 49.2005 33.3736 48.5395 33.3676C30.4495 34.1214 30.4618 59.8927 48.5395 60.6339C49.2005 60.6309 49.8616 60.5801 50.5136 60.4784L50.5729 62.2138ZM48.5988 58.2417C45.6197 58.2387 42.7632 57.0542 40.6545 54.9485C38.5458 52.8428 37.3584 49.9863 37.3524 47.0073C37.9626 32.0996 59.235 32.0996 59.833 47.0073C59.83 49.9864 58.6455 52.8429 56.5398 54.9485C54.4341 57.0541 51.5778 58.2387 48.5988 58.2417Z" fill="#3F5163"/>
</svg>
