<svg width="25" height="17" viewBox="0 0 25 17" fill="none" xmlns="http://www.w3.org/2000/svg">
<path d="M12.499 11.5427C14.3336 11.5427 15.829 10.0473 15.829 8.21275C15.829 6.37825 14.3336 4.88281 12.499 4.88281C12.2539 4.88281 12 4.91411 11.7461 4.97149L11.2349 5.09148L11.4401 5.5766C11.5027 5.72266 11.534 5.87916 11.534 6.04436C11.534 6.70688 10.995 7.24591 10.3324 7.24591C10.1725 7.24591 10.0125 7.21461 9.86469 7.15201L9.37956 6.94682L9.25958 7.45803C9.2022 7.71191 9.1709 7.96577 9.1709 8.21096C9.16916 10.0472 10.6663 11.5427 12.499 11.5427Z" fill="#3F5163"/>
<path d="M0 8.21447L0.0834655 8.43182C1.93538 13.2118 6.92586 16.4218 12.4991 16.4218C18.0724 16.4218 23.0625 13.2119 24.9148 8.43182L25 8.21447L24.9148 7.99711C23.0629 3.20997 18.0777 0 12.4991 0C6.92052 0 1.93573 3.21345 0.0834655 7.98999L0 8.21447ZM12.4588 2.70752C15.4462 2.70752 17.8665 5.12976 17.8665 8.1152C17.8665 11.1026 15.4443 13.5229 12.4588 13.5229C9.47323 13.5246 7.05117 11.1024 7.05117 8.1152C7.05117 5.12785 9.4734 2.70752 12.4588 2.70752Z" fill="#3F5163"/>
</svg>
