<svg width="36" height="36" viewBox="0 0 36 36" fill="none" xmlns="http://www.w3.org/2000/svg">
<circle cx="18" cy="18" r="18" fill="#3F5163"/>
<g clip-path="url(#clip0_1_389)">
<path d="M18.3074 25.9201C16.5617 25.8228 14.811 25.7828 13.0739 25.6082C11.7922 25.4834 11.3888 24.8396 11.5559 23.5483C11.9208 20.7124 14.0575 18.781 16.8883 18.7761C18.2492 18.7761 19.6176 18.7261 20.9538 18.9133C23.4048 19.2576 25.2507 21.6257 25.1987 24.1297C25.1851 24.7673 24.9166 25.2289 24.3215 25.4135C23.7971 25.5936 23.2512 25.7023 22.6983 25.7367C21.2371 25.7803 19.7747 25.7516 18.3123 25.7516L18.3074 25.9201Z" fill="white"/>
<path d="M18.201 9.35889C20.4849 9.35889 22.3705 11.2104 22.3804 13.4761C22.3903 15.7418 20.4961 17.6333 18.1738 17.637C15.9159 17.637 14.0291 15.7506 14.0266 13.4836C14.0241 11.2166 15.9097 9.35889 18.201 9.35889Z" fill="white"/>
</g>
<defs>
<clipPath id="clip0_1_389">
<rect width="13.68" height="16.56" fill="white" transform="translate(11.52 9.36011)"/>
</clipPath>
</defs>
</svg>
