<svg width="28" height="25" viewBox="0 0 28 25" fill="none" xmlns="http://www.w3.org/2000/svg">
<path d="M26.5446 24.8266L22.7346 23.5566C22.5246 23.4866 22.2846 23.5066 22.0846 23.6066C20.2446 24.5466 18.0746 24.9266 15.7946 24.5166C13.6746 24.1366 11.7746 23.0466 10.3446 21.5066C10.9546 21.4866 11.5646 21.4366 12.1746 21.3266C16.8646 20.4866 20.6046 16.7866 21.4846 12.1166C21.9146 9.8166 21.6546 7.5066 20.7946 5.4166C24.1346 6.5366 26.7146 9.4666 27.3446 12.9866C27.7546 15.2866 27.3646 17.4566 26.4146 19.3066C26.3146 19.5066 26.2846 19.7466 26.3546 19.9566L27.6146 23.7466C27.8446 24.4166 27.2046 25.0566 26.5446 24.8266ZM19.7646 11.7966C19.0246 15.7366 15.8246 18.8966 11.8746 19.6066C9.59465 20.0166 7.42465 19.6366 5.58465 18.6966C5.38465 18.5966 5.15465 18.5666 4.93465 18.6466L1.12465 19.9166C0.454647 20.1366 -0.175353 19.5066 0.0446472 18.8366L1.30465 15.0466C1.37465 14.8266 1.35465 14.5966 1.24465 14.3966C0.294647 12.5466 -0.0953528 10.3766 0.314647 8.0766C1.02465 4.1166 4.19465 0.906598 8.14465 0.176598C15.0946 -1.1134 21.0646 4.8566 19.7646 11.7966ZM11.2246 15.0566C11.2246 14.3666 10.6646 13.8066 9.97465 13.8066C9.28465 13.8066 8.72465 14.3666 8.72465 15.0566C8.72465 15.7466 9.28465 16.3066 9.97465 16.3066C10.6646 16.3066 11.2246 15.7466 11.2246 15.0566ZM13.5746 7.4566C13.5846 6.5166 13.1946 5.5866 12.5046 4.9066C11.8246 4.2266 10.9046 3.8066 9.95465 3.8366C7.97465 3.8466 6.37465 5.4666 6.37465 7.4366C6.37465 8.1166 6.92465 8.6666 7.60465 8.6666C8.28465 8.6666 8.83465 8.1166 8.83465 7.4366C8.83465 6.8066 9.34465 6.2966 9.97465 6.2966C10.2846 6.3066 10.5546 6.4166 10.7746 6.6466C10.9946 6.8666 11.1246 7.1566 11.1246 7.4466C11.1246 7.9266 10.8146 8.3566 10.3646 8.5166C9.40465 8.8566 8.75465 9.8066 8.75465 10.8766V11.3166C8.75465 11.9966 9.30465 12.5466 9.98465 12.5466C10.6646 12.5466 11.2146 11.9966 11.2146 11.3166L11.1946 10.8266C12.6046 10.3266 13.5646 8.9666 13.5746 7.4566Z" fill="#3F5163"/>
</svg>
