<svg width="22" height="23" viewBox="0 0 22 23" fill="none" xmlns="http://www.w3.org/2000/svg">
<path d="M8.65697 22.0002C8.23964 21.9328 7.8184 21.8824 7.40554 21.7947C4.20322 21.1153 1.66125 18.4934 1.13107 15.3131C1.05397 14.8501 1.01486 14.3767 1.00927 13.9071C0.993631 12.5542 1.00201 11.2008 1.00425 9.84789C1.00704 8.04515 2.09199 6.50597 3.81159 5.85994C4.01271 5.78432 4.21327 5.70378 4.41831 5.64076C4.54066 5.60295 4.57306 5.53775 4.57194 5.4183C4.56692 4.72131 4.56412 4.02432 4.57083 3.32679C4.58144 2.25884 5.24179 1.37775 6.23568 1.09336C7.41672 0.755283 8.6553 1.37172 9.07486 2.50706C9.09833 2.57063 9.119 2.63473 9.15084 2.72624C9.76371 2.17063 10.4688 1.92789 11.2822 2.09227C12.1001 2.25775 12.6565 2.74652 12.994 3.51309C13.6834 2.83035 14.4985 2.56624 15.4354 2.85172C16.3762 3.1383 16.8913 3.81172 17.065 4.77391C17.4142 4.47528 17.7913 4.27364 18.2315 4.18761C19.631 3.91419 20.9763 4.96131 20.9892 6.36241C21.0037 7.92021 20.9931 9.47857 20.9936 11.0369C20.9936 12.0008 21.0082 12.9646 20.9908 13.9279C20.9411 16.7312 19.7489 18.9575 17.4215 20.581C16.2522 21.3969 14.9326 21.8457 13.5001 21.9651C13.4465 21.9695 13.3934 21.9882 13.3403 22.0002H8.65642H8.65697ZM4.56915 6.33337C4.40881 6.3909 4.28534 6.43473 4.16244 6.47967C2.60094 7.05172 1.71656 8.29994 1.716 9.93501C1.71544 11.2473 1.716 12.5597 1.716 13.872C1.716 14.5104 1.78807 15.1394 1.95064 15.758C2.811 19.0336 5.77086 21.283 9.24973 21.2999C10.3788 21.3054 11.5079 21.3125 12.6364 21.2956C13.1219 21.2884 13.6119 21.2534 14.0906 21.1772C17.5036 20.6336 20.1908 17.6539 20.2646 14.2473C20.321 11.6238 20.2824 8.99857 20.2763 6.37391C20.2752 5.87419 20.0489 5.45884 19.6366 5.16241C19.1215 4.792 18.5567 4.73391 17.9807 5.00515C17.3863 5.2846 17.0807 5.77227 17.0701 6.41337C17.055 7.35638 17.0656 8.29994 17.0656 9.24295C17.0656 9.30432 17.0689 9.36624 17.0617 9.42706C17.0416 9.60515 16.908 9.72898 16.7321 9.73884C16.5477 9.74871 16.3918 9.6309 16.3605 9.44898C16.3488 9.38213 16.3533 9.31254 16.3533 9.2446C16.3527 7.82323 16.3589 6.40131 16.3494 4.97994C16.3438 4.1783 15.6896 3.50871 14.8901 3.45391C14.0275 3.39473 13.2934 3.94706 13.1711 4.76405C13.1348 5.00569 13.1403 5.25446 13.1392 5.49939C13.1359 6.54487 13.1392 7.5909 13.137 8.63638C13.137 8.88843 13.0074 9.03528 12.794 9.04021C12.5722 9.04569 12.4319 8.89227 12.4252 8.63528C12.4236 8.57391 12.4252 8.51199 12.4252 8.45062C12.4252 7.06323 12.4336 5.67583 12.4208 4.28843C12.4113 3.24679 11.3928 2.51967 10.3727 2.80515C9.67209 3.00131 9.21565 3.61282 9.2123 4.37939C9.20783 5.52789 9.21118 6.67583 9.21062 7.82432C9.21062 7.89939 9.21453 7.97556 9.2028 8.04953C9.17598 8.21884 9.06704 8.31802 8.8972 8.33775C8.72569 8.35802 8.59328 8.28186 8.53407 8.1235C8.50166 8.03693 8.49831 7.93665 8.49831 7.84186C8.49552 6.30432 8.50837 4.76624 8.49105 3.22871C8.47764 2.06597 7.2195 1.33391 6.16696 1.86706C5.54013 2.18432 5.28314 2.72021 5.2837 3.40021C5.28705 6.61282 5.28537 9.82487 5.28481 13.0375C5.28481 13.1262 5.28816 13.2161 5.27476 13.3032C5.2485 13.4725 5.139 13.5717 4.96804 13.5893C4.78647 13.6073 4.65295 13.5257 4.59988 13.3542C4.57194 13.2654 4.57194 13.1657 4.57194 13.0709C4.57027 10.918 4.57083 8.76515 4.57083 6.61227V6.33337H4.56915Z" fill="#3F5163" stroke="#3F5163" stroke-width="0.5"/>
</svg>
