<svg width="68" height="16" viewBox="0 0 68 16" fill="none" xmlns="http://www.w3.org/2000/svg">
<path d="M0.623718 15.497V0.475342H6.15923C7.05247 0.459307 7.94416 0.556159 8.81301 0.763592C9.45604 0.915363 10.0631 1.19121 10.5998 1.57557C11.0454 1.9013 11.3953 2.34008 11.6133 2.84633C11.8303 3.37992 11.9382 3.95137 11.9308 4.52713C11.9315 4.85611 11.8821 5.18328 11.7843 5.49745C11.6862 5.81711 11.5318 6.11681 11.3284 6.38251C11.1074 6.67612 10.8392 6.93127 10.5347 7.13766C10.1711 7.37903 9.77871 7.57407 9.36656 7.71822C10.2036 7.87285 10.9726 8.28114 11.5686 8.88748C12.0588 9.46684 12.313 10.2087 12.2808 10.9662C12.2849 11.5797 12.1587 12.1871 11.9105 12.7485C11.6603 13.3116 11.2877 13.8123 10.8196 14.2141C10.2982 14.6462 9.69655 14.9717 9.04909 15.1722C8.26963 15.4157 7.45621 15.5336 6.63951 15.5214L0.623718 15.497ZM4.11597 6.80068H5.91501C6.26405 6.80409 6.61272 6.77692 6.95699 6.71948C7.23762 6.67499 7.50707 6.57713 7.75069 6.43123C7.9696 6.2934 8.14466 6.09625 8.25539 5.86284C8.37711 5.57697 8.43409 5.26784 8.42227 4.95748C8.43479 4.65395 8.3892 4.35082 8.28795 4.0643C8.21153 3.83779 8.06998 3.6387 7.88093 3.49185C7.67121 3.33704 7.42909 3.23156 7.17271 3.1833C6.84035 3.11768 6.50209 3.08639 6.1633 3.08993H4.12818L4.11597 6.80068ZM4.11597 9.13107V12.8702H6.55811C6.94269 12.8852 7.32663 12.8273 7.68963 12.6997C7.95081 12.6027 8.18615 12.4471 8.3775 12.245C8.53801 12.064 8.65495 11.8487 8.7194 11.6157C8.78087 11.3825 8.81233 11.1424 8.81301 10.9012C8.81331 10.6508 8.77627 10.4018 8.70312 10.1623C8.63401 9.94609 8.50573 9.75344 8.33273 9.60608C8.12754 9.4395 7.88875 9.31903 7.63265 9.25287C7.27478 9.16365 6.90654 9.12268 6.53776 9.13107H4.11597Z" fill="#3F5163"/>
<path d="M13.8397 15.4967V4.80697H15.7446C15.8814 4.80338 16.0182 4.81702 16.1516 4.84757C16.2493 4.87158 16.3408 4.91585 16.4202 4.97749C16.4963 5.03775 16.554 5.11786 16.5871 5.20891C16.6315 5.32169 16.6642 5.43867 16.6848 5.55805L16.8598 6.56897C17.2078 6.01352 17.6564 5.52753 18.1827 5.13583C18.6465 4.79318 19.2091 4.60946 19.7863 4.6121C20.2071 4.58908 20.6229 4.71249 20.9626 4.96125L20.5556 7.30382C20.5405 7.42267 20.4809 7.53144 20.3887 7.60831C20.2906 7.67084 20.1752 7.7007 20.059 7.69357C19.9222 7.69271 19.7858 7.67774 19.652 7.64891C19.4534 7.61254 19.2515 7.59622 19.0496 7.60019C18.2071 7.60019 17.5436 8.04678 17.0674 8.94402V15.5008L13.8397 15.4967Z" fill="#3F5163"/>
<path d="M29.1479 15.4967C28.9118 15.5101 28.6759 15.467 28.46 15.3709C28.2685 15.2568 28.1242 15.0783 28.053 14.8674L27.825 14.2788C27.5867 14.4897 27.3381 14.6889 27.0802 14.8756C26.8421 15.0449 26.5886 15.1917 26.3231 15.314C26.0522 15.4391 25.7663 15.5292 25.4725 15.582C25.1452 15.6443 24.8125 15.6742 24.4793 15.6713C24.0272 15.6753 23.5771 15.611 23.1443 15.4805C22.7727 15.3632 22.4291 15.1712 22.1349 14.9162C21.8511 14.6609 21.6298 14.3443 21.4877 13.9905C21.3281 13.5834 21.252 13.1486 21.2638 12.7116C21.2679 12.3066 21.3654 11.9079 21.5488 11.5464C21.7846 11.1 22.1342 10.7233 22.5622 10.4543C23.1537 10.0804 23.8027 9.80612 24.4834 9.64234C25.4711 9.39931 26.4863 9.28468 27.5035 9.3013V8.84254C27.5431 8.35311 27.3979 7.86659 27.0965 7.47841C26.956 7.33226 26.7851 7.21861 26.5958 7.14549C26.4053 7.07219 26.2013 7.04036 25.9975 7.05211C25.6835 7.04514 25.3703 7.08761 25.0695 7.17797C24.8462 7.25285 24.6297 7.34656 24.4223 7.45811C24.2351 7.5596 24.0479 7.65298 23.8688 7.73418C23.6676 7.82251 23.4495 7.86548 23.2298 7.86004C23.0304 7.86387 22.8345 7.80724 22.6681 7.69764C22.5136 7.59531 22.3876 7.45564 22.3017 7.29165L21.7197 6.28073C22.3496 5.72405 23.0805 5.29271 23.8729 5.00998C24.6878 4.7335 25.5437 4.59624 26.4045 4.60399C27.0026 4.59549 27.5968 4.70162 28.1547 4.9166C28.6536 5.11284 29.1046 5.41322 29.4776 5.7976C29.8385 6.18043 30.1157 6.6339 30.2916 7.12925C30.4907 7.67126 30.5886 8.24505 30.5806 8.82224V15.5008L29.1479 15.4967ZM25.4847 13.548C25.8583 13.5564 26.2293 13.4829 26.5714 13.3328C26.9141 13.1517 27.2237 12.9143 27.4872 12.6304V11.1689C26.9567 11.1564 26.4262 11.1972 25.9039 11.2907C25.564 11.3492 25.2339 11.4544 24.923 11.6033C24.7173 11.6943 24.5422 11.8422 24.4183 12.0296C24.3249 12.1869 24.2757 12.3664 24.2758 12.5492C24.2627 12.6871 24.2822 12.8262 24.3328 12.9552C24.3852 13.0905 24.4689 13.2115 24.577 13.3084C24.8387 13.4746 25.1467 13.5528 25.4562 13.5317" fill="#3F5163"/>
<path d="M32.4732 15.4968V4.80701H34.4595C34.6376 4.79778 34.8142 4.84465 34.9642 4.94099C35.106 5.03675 35.2074 5.18129 35.2491 5.34698L35.4363 5.96408C35.6403 5.77342 35.855 5.5945 36.0794 5.42818C36.2981 5.26685 36.5343 5.13066 36.7836 5.02218C37.045 4.9053 37.3178 4.81551 37.5976 4.75423C37.9123 4.68928 38.2328 4.65664 38.5541 4.65679C39.0881 4.64775 39.618 4.75152 40.109 4.96129C40.5479 5.15522 40.9385 5.44359 41.2527 5.80574C41.5712 6.18443 41.8094 6.62364 41.9528 7.0968C42.1161 7.62258 42.1971 8.17034 42.1929 8.72076V15.513H38.9815V8.70452C39.0059 8.26767 38.8747 7.83628 38.6111 7.48655C38.4795 7.33649 38.3152 7.21845 38.1308 7.14146C37.9461 7.06785 37.7473 7.03597 37.5488 7.04808C37.2048 7.04411 36.8647 7.12058 36.5556 7.27137C36.233 7.43402 35.9344 7.64032 35.6683 7.88442V15.5008L32.4732 15.4968Z" fill="#3F5163"/>
<path d="M51.705 15.4967C51.5271 15.5035 51.3513 15.4568 51.2003 15.3627C51.0608 15.2654 50.9611 15.1213 50.9195 14.9567L50.6631 14.1447C50.4561 14.368 50.2315 14.5744 49.9915 14.7618C49.5163 15.1503 48.96 15.4278 48.3634 15.5738C48.0321 15.6476 47.6934 15.6831 47.354 15.6794C46.8146 15.684 46.2823 15.5571 45.8032 15.3099C45.3192 15.0506 44.9015 14.6839 44.5821 14.2381C44.2107 13.7184 43.9351 13.1369 43.7681 12.5208C43.5596 11.7673 43.4596 10.9881 43.471 10.2066C43.4654 9.45351 43.578 8.70419 43.8047 7.98583C44.0049 7.34538 44.3208 6.74684 44.7368 6.21977C45.1309 5.73001 45.6266 5.33113 46.1899 5.05051C46.7735 4.77084 47.4148 4.63178 48.0622 4.64452C48.5409 4.62934 49.018 4.70797 49.4664 4.87594C49.8415 5.03543 50.1912 5.24881 50.5043 5.50928V0.0649414H53.7076V15.4926L51.705 15.4967ZM48.4773 13.2069C48.6897 13.2103 48.9017 13.1871 49.1082 13.1379C49.2905 13.0983 49.467 13.0355 49.6333 12.9511C49.7946 12.8653 49.9449 12.7603 50.081 12.6385C50.2277 12.5058 50.3637 12.3619 50.488 12.2081V7.66916C50.2726 7.42311 50.0021 7.23116 49.6984 7.10889C49.4166 7.00076 49.1171 6.9457 48.8152 6.9465C48.5344 6.94579 48.2568 7.00533 48.0011 7.12107C47.7413 7.25201 47.5188 7.44609 47.354 7.6854C47.1592 7.99415 47.0214 8.33512 46.9469 8.69225C46.8365 9.18245 46.7846 9.68395 46.7923 10.1863C46.784 10.6629 46.8249 11.139 46.9144 11.6073C46.9776 11.9354 47.0944 12.2508 47.2603 12.5411C47.3881 12.7547 47.5726 12.929 47.7935 13.0445C48.0101 13.15 48.2486 13.2029 48.4896 13.1988" fill="#3F5163"/>
<path d="M64.6199 15.6591C64.161 15.67 63.7042 15.5956 63.2726 15.4398C62.9025 15.3059 62.5674 15.0903 62.2926 14.8091C62.0177 14.5279 61.8101 14.1884 61.6852 13.8159C61.5426 13.402 61.4737 12.9664 61.4817 12.5289V7.01147H60.57C60.4192 7.01175 60.2738 6.95519 60.163 6.85313C60.1 6.79369 60.0525 6.71984 60.0246 6.63795C59.992 6.55687 59.9794 6.46914 59.988 6.38218V5.12361L61.6893 4.79069L62.3243 2.18423C62.3365 2.10348 62.3647 2.02596 62.4073 1.95625C62.45 1.88653 62.5061 1.82601 62.5726 1.77824C62.7036 1.68535 62.8648 1.64479 63.0243 1.66456H64.6972V4.79069H67.3022V6.97087H64.6972V12.2691C64.6913 12.4876 64.7555 12.7024 64.8804 12.8821C64.9402 12.9638 65.0182 13.0305 65.1083 13.077C65.1998 13.1198 65.3005 13.1393 65.4014 13.1338C65.5004 13.1382 65.5995 13.1258 65.6944 13.0973C65.7667 13.0787 65.8364 13.0515 65.902 13.0161C65.959 12.9836 66.016 12.9592 66.0689 12.9349C66.1255 12.9108 66.1864 12.8983 66.248 12.8983C66.3301 12.8961 66.411 12.9188 66.48 12.9633C66.5516 13.0238 66.6134 13.095 66.6631 13.1744L67.6359 14.6888C67.2152 15.0005 66.7426 15.2355 66.2398 15.383C65.7199 15.54 65.1794 15.6194 64.6362 15.6185" fill="#3F5163"/>
<path d="M58.9419 4.80713H55.7386V15.4928H58.9419V4.80713Z" fill="#3F5163"/>
<path d="M59.1576 1.1449C59.0626 0.921199 58.9243 0.718392 58.7506 0.548089C58.3743 0.196631 57.8782 0.000749144 57.3627 4.38665e-06C57.1111 -0.000537649 56.862 0.0491581 56.63 0.146161C56.1764 0.342021 55.8151 0.703773 55.6206 1.15708C55.5201 1.3876 55.4688 1.63648 55.47 1.88786C55.4684 2.13404 55.5198 2.3777 55.6206 2.6024C55.7145 2.82432 55.853 3.02468 56.0276 3.19109C56.202 3.36188 56.4061 3.49947 56.63 3.59709C56.8611 3.69734 57.1106 3.7485 57.3627 3.7473C57.6226 3.7485 57.8801 3.69741 58.1197 3.59709C58.352 3.50151 58.5645 3.36386 58.7465 3.19109C58.9194 3.02325 59.0577 2.82325 59.1536 2.6024C59.2589 2.37904 59.3118 2.13467 59.3082 1.88786C59.3124 1.63576 59.2595 1.38597 59.1536 1.15708" fill="#E0CE8F"/>
</svg>
