<svg width="56" height="56" viewBox="0 0 56 56" fill="none" xmlns="http://www.w3.org/2000/svg">
<path d="M27.9096 0.000171195C22.4046 -0.0191153 17.0177 1.59158 12.4312 4.62828C7.84461 7.66497 4.2647 11.991 2.14482 17.0586C0.0249338 22.1262 -0.539553 27.7073 0.522847 33.0951C1.58525 38.483 4.22674 43.4351 8.11279 47.3244C11.9988 51.2137 16.9546 53.8652 22.3525 54.943C27.7504 56.0209 33.3476 55.4767 38.4351 53.3793C43.5227 51.2819 47.8718 47.7256 50.9317 43.161C53.9916 38.5963 55.6245 33.2285 55.6237 27.7375C55.6281 20.3959 52.7126 13.3525 47.5169 8.15246C42.3212 2.95245 35.2697 0.020599 27.9096 0.000171195ZM16.4112 8.80206L16.8548 9.5572C17.0004 9.79408 17.2044 9.98976 17.4474 10.1255C17.6904 10.2613 17.9642 10.3326 18.2428 10.3326C18.617 10.2933 18.9767 10.1667 19.2929 9.96319C20.6564 9.10249 21.8856 8.68432 23.0497 8.68432H23.3183C24.331 8.7517 25.3019 9.11265 26.1117 9.72282C26.9216 10.333 27.5351 11.1658 27.877 12.119C28.1986 13.1645 28.1477 14.2887 27.733 15.301C27.3183 16.3133 26.5653 17.1513 25.6017 17.673C25.257 17.8462 24.9039 18.002 24.5435 18.1399L23.9737 18.1074V14.6565C23.9737 14.2257 23.8021 13.8127 23.4968 13.5081C23.1915 13.2036 22.7774 13.0325 22.3456 13.0325H20.0296C19.5978 13.0325 19.1837 13.2036 18.8784 13.5081C18.573 13.8127 18.4015 14.2257 18.4015 14.6565V39.4219C18.4015 39.8526 18.573 40.2657 18.8784 40.5702C19.1837 40.8748 19.5978 41.0459 20.0296 41.0459H22.3741C22.8058 41.0459 23.22 40.8748 23.5253 40.5702C23.8306 40.2657 24.0021 39.8526 24.0021 39.4219V23.5314H24.9505C27.8787 23.743 30.6342 24.9933 32.7182 27.056C34.8021 29.1188 36.0768 31.8576 36.3115 34.7766C36.5461 37.6957 35.7252 40.6021 33.9974 42.9697C32.2696 45.3373 29.749 47.0096 26.892 47.6838C24.6178 48.221 22.2372 48.1005 20.0291 47.3365C17.8211 46.5725 15.8771 45.1967 14.4248 43.3702C12.9726 41.5437 12.0722 39.3422 11.8293 37.0237C11.5864 34.7051 12.0109 32.3655 13.0532 30.279L13.1509 30.0801C13.216 29.942 13.2852 29.808 13.3137 29.7309L13.6678 29.061C13.8561 28.691 13.8952 28.2631 13.7771 27.8652C13.659 27.4674 13.3927 27.1296 13.0329 26.9214L11.2501 25.8983C11.002 25.7581 10.7213 25.6853 10.4361 25.6872C10.2031 25.692 9.97375 25.7455 9.76274 25.8441C9.55173 25.9427 9.36376 26.0842 9.21094 26.2597C9.15275 26.3317 9.0997 26.4076 9.0522 26.487L8.88125 26.7875L8.68995 27.1082L8.64518 27.1894C8.6004 27.2706 8.5597 27.3477 8.54342 27.3883C8.47423 27.5061 8.41317 27.6279 8.3684 27.7253C8.27885 27.8918 8.19745 28.0542 8.12826 28.2044C8.09162 28.2815 8.05499 28.3546 8.04278 28.3911C7.82324 28.8554 7.62895 29.3311 7.46074 29.8162C7.39155 30.007 7.32642 30.2222 7.25723 30.4211L7.23281 30.4982L7.14733 30.7824C7.08628 30.9976 7.02523 31.2168 6.96824 31.4523L6.78101 32.2643C6.6874 32.6987 6.62227 33.1372 6.57343 33.5675C5.30859 28.9335 5.58359 24.0155 7.35723 19.5505C9.13087 15.0856 12.3076 11.3143 16.4112 8.80206ZM36.5914 48.1182C38.5844 46.0948 40.0588 43.6218 40.8897 40.9089C41.7205 38.196 41.8832 35.3233 41.3639 32.5344C40.8446 29.7454 39.6587 27.1225 37.9068 24.8881C36.1549 22.6537 33.8886 20.8736 31.3001 19.6989C32.9236 17.604 33.6553 14.956 33.3369 12.3273C33.0185 9.69856 31.6757 7.30048 29.5987 5.65157C34.5464 6.05163 39.2177 8.09125 42.8688 11.4457C46.52 14.8002 48.9411 19.2766 49.7467 24.1623C50.5523 29.048 49.696 34.0621 47.3143 38.4062C44.9325 42.7504 41.1622 46.1749 36.6036 48.1345L36.5914 48.1182Z" fill="#3F5163"/>
</svg>
