<svg width="18" height="18" viewBox="0 0 18 18" fill="none" xmlns="http://www.w3.org/2000/svg">
<path d="M12.8083 17.3335C13.0296 17.3347 13.249 17.2919 13.4536 17.2075C13.6582 17.1231 13.844 16.9988 14 16.8418L16.2583 14.5835C16.4135 14.4273 16.5006 14.2161 16.5006 13.996C16.5006 13.7758 16.4135 13.5646 16.2583 13.4085L12.925 10.0751C12.7689 9.91991 12.5576 9.83279 12.3375 9.83279C12.1173 9.83279 11.9061 9.91991 11.75 10.0751L10.4167 11.4001C9.49353 11.154 8.63858 10.7009 7.91665 10.0751C7.29259 9.35204 6.83968 8.4975 6.59165 7.57512L7.91665 6.24178C8.07186 6.08565 8.15898 5.87444 8.15898 5.65428C8.15898 5.43413 8.07186 5.22292 7.91665 5.06678L4.58332 1.73345C4.42718 1.57824 4.21598 1.49112 3.99582 1.49112C3.77567 1.49112 3.56446 1.57824 3.40832 1.73345L1.15832 4.00012C1.00135 4.15615 0.877025 4.34189 0.792609 4.54649C0.708193 4.75109 0.665375 4.97046 0.666654 5.19178C0.742256 8.39369 2.02172 11.4495 4.24999 13.7501C6.55059 15.9784 9.60641 17.2578 12.8083 17.3335ZM3.99999 3.50845L6.15832 5.66678L5.08332 6.74178C4.9815 6.83716 4.90526 6.95657 4.86158 7.08906C4.8179 7.22155 4.80818 7.36289 4.83332 7.50012C5.14479 8.89209 5.80424 10.1823 6.74999 11.2501C7.81695 12.1971 9.10751 12.8567 10.5 13.1668C10.6351 13.195 10.7752 13.1893 10.9076 13.15C11.0399 13.1107 11.1605 13.0392 11.2583 12.9418L12.3333 11.8418L14.4917 14.0001L12.825 15.6668C10.0614 15.5956 7.42457 14.4927 5.43332 12.5751C3.51075 10.583 2.40466 7.94271 2.33332 5.17512L3.99999 3.50845ZM15.6667 8.16678H17.3333C17.3549 7.17595 17.1757 6.191 16.8064 5.27129C16.4372 4.35158 15.8855 3.51616 15.1847 2.81536C14.4839 2.11457 13.6485 1.56292 12.7288 1.19366C11.8091 0.824401 10.8242 0.645175 9.83332 0.666785V2.33345C10.6066 2.3067 11.3771 2.43929 12.0969 2.72298C12.8167 3.00667 13.4705 3.43538 14.0176 3.98248C14.5647 4.52959 14.9934 5.18337 15.2771 5.90321C15.5608 6.62304 15.6934 7.39353 15.6667 8.16678Z" fill="#E0CE8F"/>
<path d="M9.83331 5.66667C11.5833 5.66667 12.3333 6.41667 12.3333 8.16667H14C14 5.48333 12.5166 4 9.83331 4V5.66667Z" fill="#E0CE8F"/>
</svg>
