<svg width="20" height="23" viewBox="0 0 20 23" fill="none" xmlns="http://www.w3.org/2000/svg">
<path d="M9.18468e-05 8.25035C9.18468e-05 7.25596 0.196509 6.31654 0.583567 5.43974C0.953371 4.58812 1.5028 3.8065 2.20257 3.13654C2.90091 2.47538 3.70006 1.90366 4.57691 1.4379C5.47655 0.956243 6.45052 0.592863 7.46828 0.35916C8.49834 0.119793 9.55899 -0.000922015 10.624 5.30207e-06C12.269 5.30207e-06 13.7999 0.308035 15.2195 0.921539C16.6207 1.52385 17.8133 2.4482 18.6727 3.59795C19.5595 4.76744 20 6.09031 20 7.56527C20 8.44974 19.9018 9.31503 19.701 10.1612C19.5039 11.0068 19.1906 11.8279 18.7681 12.6062C18.3653 13.3596 17.8387 14.0561 17.2054 14.673C16.5689 15.28 15.798 15.7647 14.9408 16.0968C14.0101 16.4578 13.0034 16.6394 11.9873 16.6298C11.2811 16.6298 10.5763 16.4828 9.88017 16.1876C9.18405 15.8936 8.68434 15.4897 8.38394 14.972C8.27851 15.3312 8.13408 15.8501 7.942 16.5288C7.75713 17.2062 7.63293 17.6433 7.57805 17.8415C7.52028 18.0383 7.4134 18.3668 7.25742 18.8218C7.15164 19.1584 7.01594 19.487 6.85159 19.8047L6.35477 20.6661C6.13991 21.0358 5.89972 21.3935 5.63554 21.7372C5.37413 22.0721 5.05062 22.4721 4.665 22.9323L4.44981 23L4.30683 22.862C4.1523 21.4138 4.07286 20.5473 4.07286 20.261C4.07286 19.4136 4.18696 18.4626 4.41226 17.4069C4.63323 16.3524 4.98274 15.027 5.45212 13.4332C5.9215 11.8406 6.19013 10.9038 6.26234 10.6264C5.93161 10.0295 5.76407 9.24985 5.76407 8.29125C5.76407 7.52565 6.03415 6.80862 6.57574 6.13376C7.11878 5.46146 7.80479 5.12532 8.63668 5.12532C9.27359 5.12532 9.76752 5.31192 10.1214 5.68642C10.4766 6.05963 10.65 6.52998 10.65 7.10387C10.65 7.71226 10.4218 8.59289 9.9625 9.74449C9.50323 10.8974 9.27503 11.7575 9.27503 12.3289C9.27503 12.9079 9.509 13.3923 9.97694 13.7719C10.4387 14.1517 11.0494 14.3575 11.6797 14.3458C12.2516 14.3458 12.7817 14.2307 13.2741 13.9994C13.7589 13.7748 14.1786 13.4542 14.5003 13.0625C15.2011 12.2117 15.7007 11.2444 15.9691 10.2187C16.1078 9.6793 16.2146 9.16677 16.2811 8.68491C16.3518 8.2005 16.3822 7.74293 16.3822 7.30837C16.3822 5.71454 15.8102 4.47219 14.6736 3.58261C13.5312 2.69303 12.0437 2.2508 10.2138 2.2508C8.13264 2.2508 6.39232 2.84641 4.99862 4.04146C3.60348 5.23268 2.90158 6.74727 2.90158 8.58394C2.90158 8.98911 2.9709 9.38022 3.10233 9.75855C3.23087 10.1356 3.37096 10.436 3.52261 10.6584C3.67281 10.8769 3.81434 11.0904 3.94288 11.2872C4.07286 11.484 4.14074 11.6246 4.14074 11.709C4.14074 11.9672 4.0642 12.3033 3.90966 12.7187C3.74935 13.1341 3.56016 13.3412 3.33197 13.3412C3.3103 13.3412 3.22076 13.3271 3.06478 13.2977C2.52458 13.155 2.03673 12.8882 1.65086 12.5244C1.24133 12.1474 0.918132 11.7039 0.699106 11.2182C0.480704 10.7342 0.310597 10.2343 0.190732 9.72404C0.0612291 9.24126 -0.00276938 8.74654 9.18468e-05 8.25035Z" fill="white"/>
</svg>
