<svg width="28" height="30" viewBox="0 0 28 30" fill="none" xmlns="http://www.w3.org/2000/svg">
<path d="M11.0441 27.185C11.0391 27.17 11.0441 27.1551 11.0391 27.1401L9.68331 22.8683C9.59857 22.6041 9.32442 22.4595 9.05524 22.5443C8.79105 22.629 8.6465 22.9081 8.73124 23.1723L9.77802 26.4672C5.15224 24.7276 1.99694 20.2364 1.99694 15.2317C1.99694 8.61208 7.38039 3.22863 14 3.22863C14.2742 3.22863 14.4985 3.00431 14.4985 2.73016C14.4985 2.456 14.2742 2.23169 14 2.23169C6.83208 2.23169 1 8.06376 1 15.2317C1 20.5653 4.30983 25.3506 9.18484 27.2996L5.56098 28.7253C5.30676 28.825 5.17716 29.1141 5.28184 29.3733C5.36159 29.5677 5.54603 29.6873 5.74541 29.6873C5.80523 29.6873 5.87003 29.6773 5.92985 29.6524L10.745 27.7532C10.9743 27.6635 11.094 27.4243 11.0441 27.185Z" fill="#868686" stroke="#868686" stroke-width="0.2"/>
<path d="M18.8151 3.16349L22.439 1.73787C22.6932 1.63818 22.8228 1.34906 22.7181 1.08986C22.6184 0.835642 22.3293 0.711025 22.0701 0.810719L17.2549 2.70988C17.0256 2.79961 16.906 3.04386 16.9558 3.27814C16.9558 3.27814 16.9558 3.27813 16.9558 3.28312C16.9608 3.29807 16.9558 3.31303 16.9608 3.32798L18.3167 7.59985C18.3815 7.81419 18.5809 7.94878 18.7902 7.94878C18.8401 7.94878 18.8899 7.9438 18.9398 7.92386C19.2039 7.83912 19.3485 7.55998 19.2638 7.29579L18.217 4.00091C22.8477 5.73558 26.003 10.2268 26.003 15.2314C26.003 21.8511 20.6196 27.2345 13.9999 27.2345C13.7258 27.2345 13.5015 27.4588 13.5015 27.733C13.5015 28.0071 13.7258 28.2314 13.9999 28.2314C21.1679 28.2314 27 22.3994 27 15.2314C27 9.89779 23.6902 5.1125 18.8151 3.16349Z" fill="#868686" stroke="#868686" stroke-width="0.2"/>
<path d="M8.06348 10.2919V20.1665C8.06348 20.7148 8.5121 21.1634 9.06041 21.1634H18.9351C19.4834 21.1634 19.932 20.7148 19.932 20.1665V10.2919C19.932 9.74354 19.4834 9.29492 18.9351 9.29492H9.06041C8.5121 9.29492 8.06348 9.74354 8.06348 10.2919ZM18.9351 20.1715H9.06041V10.2919H18.9351V20.1715Z" fill="#868686"/>
<path d="M18.94 20.1715V20.67M8.06348 10.2919V20.1665C8.06348 20.7148 8.5121 21.1634 9.06041 21.1634H18.9351C19.4834 21.1634 19.932 20.7148 19.932 20.1665V10.2919C19.932 9.74354 19.4834 9.29492 18.9351 9.29492H9.06041C8.5121 9.29492 8.06348 9.74354 8.06348 10.2919ZM18.9351 20.1715H9.06041V10.2919H18.9351V20.1715Z" stroke="#868686" stroke-width="0.2"/>
</svg>
