<svg width="20" height="19" viewBox="0 0 20 19" fill="none" xmlns="http://www.w3.org/2000/svg">
<path d="M11.6902 3.51973C12.0696 3.51973 12.3764 3.81149 12.3764 4.17241C12.3764 4.53333 12.0696 4.82509 11.6902 4.82509H4.23973C3.86028 4.82509 3.55239 4.53333 3.55239 4.17241C3.55239 3.81149 3.86028 3.51973 4.23973 3.51973H11.6902ZM6.25962 10.0064V10.0075H13.5635C13.885 10.0075 14.1452 10.255 14.1452 10.5608V17.6937H5.6791V10.5608C5.6791 10.255 5.9381 10.0075 6.25962 10.0064ZM2.34346 0.000165412V0.00232632C1.27439 0.0131323 0.412109 0.840847 0.412109 1.86095V17.1392C0.412109 18.1593 1.27439 18.987 2.34346 19H17.4796C18.5487 18.987 19.4121 18.1593 19.4121 17.1392C19.4121 17.1381 19.4098 6.43696 19.4098 6.43696C19.4098 6.25542 19.3576 6.06633 19.211 5.92691L13.1808 0.191264C13.0467 0.0637547 12.8706 0 12.6956 0L2.34346 0.000165412Z" fill="#3F5163"/>
</svg>
