<svg width="27" height="24" viewBox="0 0 27 24" fill="none" xmlns="http://www.w3.org/2000/svg">
<path d="M25.8838 6.10771L19.52 0.301557C18.8096 -0.38241 17.529 0.178556 17.5624 1.1683V3.78578C11.0905 4.00764 5.97623 10.2438 6.97973 16.6261C7.08204 17.3756 8.1557 17.5469 8.46378 16.8135C10.1639 13.3016 13.6331 11.0485 17.5624 10.8899V13.4706C17.5279 14.4569 18.8108 15.0248 19.52 14.3374L25.8838 8.5265C26.5873 7.91151 26.5885 6.72518 25.8838 6.11019V6.10771Z" fill="#3F5163"/>
<path d="M20.0467 15.8271C19.6582 15.8271 19.3443 16.1421 19.3443 16.5295V20.9022C19.3443 21.3046 19.0167 21.6322 18.6144 21.6322H2.79679C2.39445 21.6322 2.06683 21.3046 2.06683 20.9022V5.08463C2.06683 4.68229 2.39445 4.35467 2.79679 4.35467H11.0378C11.9586 4.34318 11.962 2.96258 11.0378 2.94995H2.79679C1.61967 2.94995 0.662109 3.90751 0.662109 5.08463V20.9022C0.662109 22.0793 1.61967 23.0369 2.79679 23.0369H18.6144C19.7915 23.0369 20.7491 22.0793 20.7491 20.9022V16.5295C20.7491 16.1421 20.4341 15.8271 20.0467 15.8271Z" fill="#3F5163"/>
</svg>
