<svg width="28" height="20" viewBox="0 0 28 20" fill="none" xmlns="http://www.w3.org/2000/svg">
<path d="M13.871 0C11.8071 0 9.74003 0.784197 8.16532 2.35887C6.82887 3.69532 6.0591 5.38489 5.85684 7.12702C2.57061 7.42537 0 10.1845 0 13.5484C0 17.1115 2.88852 20 6.45161 20H22.2581C25.2961 20 27.7419 17.5542 27.7419 14.5161C27.7419 11.4781 25.2961 9.03226 22.2581 9.03226H21.875C22.1593 6.65987 21.3871 4.17945 19.5665 2.35887C17.9919 0.784197 15.9349 0 13.871 0ZM13.871 6.77419C14.0422 6.77355 14.1624 6.80571 14.3045 6.93548L17.8528 10.1613C18.1053 10.3878 18.1516 10.8298 17.9032 11.0786C17.6636 11.3186 17.2363 11.3476 16.9859 11.1189L14.5161 8.87097V15.8065C14.5161 16.1628 14.2274 16.4516 13.871 16.4516C13.5146 16.4516 13.2258 16.1628 13.2258 15.8065V8.87097L10.7561 11.1189C10.5056 11.3476 10.0664 11.33 9.83871 11.0786C9.6111 10.8272 9.62397 10.3921 9.8891 10.1613L13.4375 6.93548C13.5297 6.85103 13.6984 6.77742 13.871 6.77419Z" fill="#3F5163"/>
</svg>
