<svg width="22" height="22" viewBox="0 0 22 22" fill="none" xmlns="http://www.w3.org/2000/svg">
<path d="M4.83313 0C2.16634 0 0.00420253 2.10971 0.00420253 4.71604C0.00420253 7.32235 2.16531 9.43209 4.83514 9.43209C7.50493 9.43209 9.66607 7.32237 9.66607 4.71604C9.66705 2.10974 7.50105 0 4.83313 0ZM9.41361 13.7719L5.07857 11.3298C4.92595 11.2438 4.73518 11.2438 4.58256 11.3298L0.247515 13.7719C0.0948955 13.8578 0 14.0192 0 14.1902V19.0751C0 19.249 0.094898 19.4075 0.247515 19.4935L4.58256 21.9355C4.73518 22.0215 4.92595 22.0215 5.07857 21.9355L9.41361 19.4935C9.56623 19.4075 9.66113 19.2461 9.66113 19.0751V14.1902C9.66113 14.0163 9.56623 13.8578 9.41361 13.7719ZM21.2424 11.5256H12.5715C12.2986 11.5256 12.0755 11.7433 12.0755 12.0098V20.4744C12.0755 20.7409 12.2986 20.9586 12.5715 20.9586H21.2424C21.5153 20.9586 21.7384 20.7409 21.7384 20.4744V12.0098C21.7384 11.7433 21.5153 11.5256 21.2424 11.5256ZM21.9292 8.27086L17.3955 0.608423C17.1773 0.241682 16.6344 0.241682 16.4162 0.608423L11.8826 8.27086C11.6644 8.6376 11.9373 9.09985 12.3707 9.09985H21.4348C21.8701 9.09985 22.1411 8.64046 21.9229 8.27086H21.9292Z" fill="#3F5163"/>
</svg>
