<svg width="23" height="23" viewBox="0 0 23 23" fill="none" xmlns="http://www.w3.org/2000/svg">
<path d="M2.79312 7.3147e-06C1.2611 7.3147e-06 0.00196029 1.25916 0.00196029 2.79114V7.44531C0.00148031 7.56765 0.025127 7.6889 0.071513 7.8021C0.117899 7.9153 0.186117 8.01825 0.272303 8.10507C0.358489 8.1919 0.460939 8.26087 0.573796 8.30809C0.686653 8.35531 0.80771 8.37985 0.930046 8.38027C1.05238 8.37985 1.17344 8.35531 1.2863 8.30809C1.39915 8.26087 1.5016 8.1919 1.58779 8.10507C1.67397 8.01825 1.74222 7.9153 1.78861 7.8021C1.83499 7.6889 1.85861 7.56765 1.85813 7.44531V2.79114C1.85813 2.26577 2.26771 1.86305 2.79312 1.86305H7.44727C7.57019 1.86354 7.69198 1.83967 7.80564 1.79286C7.9193 1.74604 8.02255 1.67718 8.10947 1.59027C8.19639 1.50335 8.26524 1.40009 8.31206 1.28644C8.35887 1.17278 8.38272 1.05101 8.38223 0.928093C8.38181 0.805754 8.35729 0.684702 8.31007 0.571843C8.26285 0.458984 8.19385 0.356509 8.10703 0.270323C8.0202 0.184137 7.91726 0.11589 7.80406 0.0695063C7.69085 0.0231224 7.56961 -0.000477298 7.44727 7.3147e-06H2.79312Z" fill="#3F5163"/>
<path d="M14.8998 0C14.6539 0.000847472 14.4183 0.0988673 14.2445 0.272732C14.0706 0.446598 13.9725 0.682204 13.9717 0.928085C13.9712 1.05042 13.9948 1.17167 14.0412 1.28487C14.0876 1.39808 14.1558 1.50102 14.242 1.58784C14.3282 1.67467 14.4307 1.74364 14.5435 1.79086C14.6564 1.83808 14.7774 1.86262 14.8998 1.86305H19.5539C20.0793 1.86305 20.4889 2.26576 20.4889 2.79113V7.44531C20.4884 7.56764 20.512 7.68889 20.5584 7.80209C20.6048 7.9153 20.6731 8.01824 20.7593 8.10506C20.8454 8.19189 20.9479 8.26086 21.0607 8.30808C21.1736 8.3553 21.2947 8.37985 21.417 8.38027C21.5399 8.38075 21.6617 8.35688 21.7754 8.31007C21.889 8.26326 21.9923 8.19445 22.0792 8.10753C22.1661 8.02062 22.235 7.91736 22.2818 7.80371C22.3286 7.69005 22.3524 7.56822 22.352 7.44531V2.79113C22.3519 1.25915 21.0859 0 19.5539 0H14.8998Z" fill="#3F5163"/>
<path d="M21.417 13.9688C21.1711 13.9696 20.9355 14.0676 20.7617 14.2415C20.5878 14.4154 20.4898 14.651 20.4889 14.8968V19.5579C20.4889 20.0833 20.0793 20.486 19.5539 20.486H14.8998C14.6539 20.4868 14.4183 20.5849 14.2445 20.7588C14.0706 20.9326 13.9725 21.1682 13.9717 21.4141C13.9712 21.5364 13.9949 21.6576 14.0412 21.7709C14.0876 21.8841 14.1558 21.987 14.242 22.0738C14.3282 22.1606 14.4307 22.2296 14.5435 22.2768C14.6564 22.3241 14.7774 22.3486 14.8998 22.349H19.5539C21.0859 22.349 22.3519 21.0899 22.352 19.5579V14.8968C22.3515 14.7745 22.327 14.6535 22.2798 14.5406C22.2326 14.4277 22.1636 14.3253 22.0768 14.2391C21.9899 14.1529 21.887 14.0846 21.7738 14.0383C21.6606 13.9919 21.5393 13.9683 21.417 13.9688Z" fill="#3F5163"/>
<path d="M0.930039 13.9688C0.684157 13.9696 0.448604 14.0676 0.274739 14.2415C0.100874 14.4153 0.0028006 14.651 0.00195312 14.8968V19.5579C0.00195312 21.0899 1.2611 22.349 2.79311 22.349H7.44726C7.57018 22.3495 7.69198 22.3256 7.80563 22.2788C7.91929 22.232 8.02254 22.1632 8.10946 22.0763C8.19638 21.9894 8.26523 21.8861 8.31205 21.7725C8.35887 21.6588 8.3827 21.537 8.38222 21.4141C8.3818 21.2917 8.35728 21.1707 8.31006 21.0578C8.26284 20.9449 8.19384 20.8425 8.10702 20.7563C8.02019 20.6702 7.91725 20.6019 7.80405 20.5555C7.69084 20.5091 7.5696 20.4855 7.44726 20.486H2.79311C2.2677 20.486 1.85812 20.0833 1.85812 19.5579V14.8968C1.85728 14.651 1.75923 14.4153 1.58536 14.2415C1.4115 14.0676 1.17592 13.9696 0.930039 13.9688Z" fill="#3F5163"/>
<path d="M3.72165 4.65367L3.7111 8.87941C3.71096 8.93544 3.72187 8.99093 3.74322 9.04274C3.76456 9.09455 3.79592 9.14169 3.83549 9.18136C3.87506 9.22103 3.92206 9.25248 3.97382 9.27395C4.02557 9.29543 4.08105 9.3065 4.13709 9.3065H18.209C18.2651 9.3065 18.3205 9.29543 18.3723 9.27395C18.4241 9.25248 18.4711 9.22103 18.5107 9.18136C18.5502 9.14169 18.5816 9.09455 18.6029 9.04274C18.6243 8.99093 18.6352 8.93544 18.635 8.87941L18.6245 4.65367C18.6239 4.40646 18.5252 4.16962 18.3502 3.99504C18.1752 3.82045 17.9381 3.72241 17.6908 3.72241H4.65543C4.40822 3.72241 4.1711 3.82045 3.99608 3.99504C3.82105 4.16962 3.72228 4.40646 3.72165 4.65367ZM3.7111 13.4606L3.72165 17.6918C3.72228 17.939 3.82092 18.1759 3.99594 18.3504C4.17097 18.525 4.40809 18.6231 4.6553 18.6231H17.6934C17.9406 18.6231 18.1778 18.525 18.3528 18.3504C18.5278 18.1759 18.6264 17.939 18.627 17.6918L18.6376 13.4606C18.6378 13.4046 18.6268 13.349 18.6055 13.2972C18.5842 13.2454 18.5528 13.1983 18.5132 13.1586C18.4736 13.119 18.4266 13.0875 18.3749 13.0661C18.3231 13.0446 18.2676 13.0335 18.2116 13.0335H4.13696C4.08092 13.0335 4.02544 13.0446 3.97368 13.0661C3.92193 13.0875 3.8749 13.119 3.83533 13.1586C3.79576 13.1983 3.7644 13.2454 3.74306 13.2972C3.72171 13.349 3.71096 13.4046 3.7111 13.4606Z" fill="#3F5163"/>
<path d="M2.79339 10.2432C2.67105 10.2427 2.54981 10.2663 2.43661 10.3127C2.3234 10.3591 2.22044 10.4273 2.13361 10.5135C2.04678 10.5997 1.97778 10.7021 1.93056 10.815C1.88334 10.9279 1.85883 11.0489 1.85841 11.1713C1.85792 11.2942 1.88176 11.416 1.92858 11.5297C1.97539 11.6433 2.04425 11.7466 2.13117 11.8335C2.21808 11.9204 2.32134 11.9893 2.43499 12.0361C2.54865 12.0829 2.67047 12.1067 2.79339 12.1062H19.5539C19.6768 12.1067 19.7986 12.0829 19.9123 12.0361C20.0259 11.9893 20.1292 11.9204 20.2161 11.8335C20.303 11.7466 20.3719 11.6433 20.4187 11.5297C20.4655 11.416 20.4893 11.2942 20.4889 11.1713C20.4884 11.0489 20.4639 10.9279 20.4167 10.815C20.3695 10.7021 20.3005 10.5997 20.2137 10.5135C20.1268 10.4273 20.0239 10.3591 19.9107 10.3127C19.7975 10.2663 19.6762 10.2427 19.5539 10.2432H2.79339Z" fill="#3F5163"/>
</svg>
