<svg width="23" height="23" viewBox="0 0 23 23" fill="none" xmlns="http://www.w3.org/2000/svg">
<path fill-rule="evenodd" clip-rule="evenodd" d="M22.1901 9.70954L20.3855 9.44386C20.0185 9.38995 19.7143 9.13326 19.5975 8.7803C19.473 8.40938 19.3228 8.04742 19.1483 7.69703C18.9827 7.36461 19.0173 6.96799 19.2381 6.67024L20.3252 5.20707C20.5973 4.81561 20.5498 4.28552 20.2123 3.94926L19.052 2.789C18.7158 2.45274 18.1857 2.40523 17.7942 2.67605L16.3298 3.76189C16.0307 3.98265 15.6341 4.0173 15.3017 3.85045C14.9513 3.67461 14.5893 3.52444 14.2171 3.39866C13.8667 3.28186 13.61 2.97638 13.5561 2.61061L13.2905 0.809868C13.2058 0.341388 12.7976 0 12.3214 0H10.6786C10.2024 0 9.79425 0.340139 9.70826 0.809868L9.44258 2.61061C9.38867 2.97641 9.13326 3.28189 8.78159 3.39866C8.40938 3.52444 8.04742 3.67461 7.69703 3.85045C7.36462 4.0173 6.96799 3.98265 6.66896 3.76189L5.20707 2.67477C4.81433 2.40396 4.28552 2.45145 3.94798 2.78772L2.78772 3.94798H2.78901C2.45146 4.28552 2.40395 4.81433 2.67477 5.20579L3.76189 6.66896H3.76317C3.98265 6.96673 4.01731 7.36333 3.85173 7.69575C3.67846 8.04614 3.52829 8.4081 3.40379 8.7803C3.28699 9.13198 2.98282 9.38869 2.61574 9.44258L0.81115 9.70826L0.809868 9.70954C0.341388 9.79425 0 10.2024 0 10.6786V12.3214C0 12.7976 0.340139 13.2058 0.809868 13.2917L2.61446 13.5574C2.98154 13.6113 3.28573 13.868 3.40251 14.221C3.52701 14.5919 3.67718 14.9539 3.85173 15.3043C4.0173 15.6367 3.98265 16.0333 3.76189 16.331L2.67477 17.7942C2.40267 18.1857 2.45016 18.7158 2.78772 19.052L3.94798 20.2123C4.28424 20.5485 4.81432 20.5961 5.20579 20.3252L6.67024 19.2381C6.96929 19.0173 7.36589 18.9827 7.69831 19.1496C8.0487 19.3254 8.41066 19.4756 8.78286 19.6013C9.13326 19.7181 9.38997 20.0236 9.44386 20.3894L9.70954 22.1901C9.79425 22.6586 10.2024 23 10.6786 23H12.3214C12.7976 23 13.2058 22.6599 13.2917 22.1901L13.5574 20.3894C13.6113 20.0236 13.8667 19.7181 14.2184 19.6013C14.5906 19.4756 14.9526 19.3254 15.303 19.1496C15.6354 18.9827 16.032 19.0174 16.331 19.2381L17.7929 20.3252C18.1857 20.596 18.7145 20.5486 19.052 20.2123L20.2123 19.052H20.211C20.5485 18.7145 20.5961 18.1857 20.3252 17.7942L19.2381 16.3298C19.0173 16.032 18.9827 15.6354 19.1483 15.303C19.3228 14.9526 19.4717 14.5906 19.5962 14.2197C19.713 13.8667 20.0185 13.61 20.3843 13.5561L22.1889 13.2905H22.1901C22.6586 13.2058 23 12.7976 23 12.3214V10.6786C23 10.2024 22.6586 9.79553 22.1901 9.70954ZM11.5 15.7714C9.77243 15.7714 8.21427 14.7305 7.55318 13.1351C6.89219 11.5384 7.25798 9.70185 8.47986 8.47989C9.70173 7.25792 11.5384 6.89222 13.1351 7.55321C14.7305 8.2142 15.7714 9.77236 15.7714 11.5C15.7714 13.8591 13.8591 15.7714 11.5 15.7714Z" fill="#3F5163"/>
</svg>
