<svg width="22" height="21" viewBox="0 0 22 21" fill="none" xmlns="http://www.w3.org/2000/svg">
<path d="M17.4599 0H4.54009C2.03389 0.00238618 0.00255996 1.94129 0 4.33373V16.6663C0.0024998 19.0586 2.03373 20.9976 4.54009 21H17.4599C19.9661 20.9976 21.9974 19.0587 22 16.6663V4.33373C21.9975 1.94144 19.9663 0.0024436 17.4599 0ZM17.4999 8.11337C17.4999 8.48204 17.1862 8.78154 16.7999 8.78154H15.6999C15.3137 8.78154 14.9999 8.48205 14.9999 8.11337V6.68157H12.25V14.3178H13.2999C13.6862 14.3178 13.9999 14.6173 13.9999 14.986V16.036C13.9999 16.4047 13.6862 16.7041 13.2999 16.7041H8.7C8.31377 16.7041 8.00001 16.4047 8.00001 16.036V14.986C8.00001 14.6173 8.31376 14.3178 8.7 14.3178H9.74997V6.68157H6.99999V8.11337C6.99999 8.48204 6.68625 8.78154 6.3 8.78154H5.20002C4.81379 8.78154 4.50003 8.48205 4.50003 8.11337V4.96356C4.50003 4.59489 4.81378 4.29539 5.20002 4.29539H16.7999C17.1861 4.29539 17.4998 4.59488 17.4998 4.96356L17.4999 8.11337Z" fill="#3F5163"/>
</svg>
