<svg width="24" height="24" viewBox="0 0 24 24" fill="none" xmlns="http://www.w3.org/2000/svg">
<path d="M20.3843 5.21739H18.7826V3.61565C18.7812 2.65715 18.3999 1.73829 17.7221 1.06052C17.0443 0.382757 16.1255 0.00138014 15.167 0H3.61565C2.65715 0.00138014 1.73829 0.382757 1.06052 1.06052C0.382757 1.73829 0.00138014 2.65715 0 3.61565V15.167C0.00138014 16.1255 0.382757 17.0443 1.06052 17.7221C1.73829 18.3999 2.65715 18.7812 3.61565 18.7826H5.21739V20.3843C5.21877 21.3429 5.60015 22.2617 6.27792 22.9395C6.95568 23.6172 7.87454 23.9986 8.83304 24H20.3843C21.3429 23.9986 22.2617 23.6172 22.9395 22.9395C23.6172 22.2617 23.9986 21.3429 24 20.3843V8.83304C23.9986 7.87454 23.6172 6.95568 22.9395 6.27792C22.2617 5.60015 21.3429 5.21877 20.3843 5.21739ZM14.087 8.34783C14.2933 8.34783 14.4951 8.40903 14.6667 8.52368C14.8383 8.63834 14.972 8.80131 15.051 8.99198C15.13 9.18265 15.1506 9.39246 15.1104 9.59488C15.0701 9.79729 14.9707 9.98322 14.8248 10.1292C14.6789 10.2751 14.4929 10.3745 14.2905 10.4147C14.0881 10.455 13.8783 10.4343 13.6876 10.3554C13.497 10.2764 13.334 10.1426 13.2193 9.97103C13.1047 9.79943 13.0435 9.59768 13.0435 9.3913C13.0435 9.11456 13.1534 8.84914 13.3491 8.65345C13.5448 8.45776 13.8102 8.34783 14.087 8.34783ZM5.21739 4.17391H6.78261C7.05936 4.17391 7.32477 4.28385 7.52046 4.47954C7.71615 4.67523 7.82609 4.94064 7.82609 5.21739C7.82609 5.49414 7.71615 5.75955 7.52046 5.95524C7.32477 6.15093 7.05936 6.26087 6.78261 6.26087H5.21739C4.94064 6.26087 4.67523 6.15093 4.47954 5.95524C4.28385 5.75955 4.17391 5.49414 4.17391 5.21739C4.17391 4.94064 4.28385 4.67523 4.47954 4.47954C4.67523 4.28385 4.94064 4.17391 5.21739 4.17391ZM5.21739 8.34783H9.91304C10.1898 8.34783 10.4552 8.45776 10.6509 8.65345C10.8466 8.84914 10.9565 9.11456 10.9565 9.3913C10.9565 9.66805 10.8466 9.93346 10.6509 10.1292C10.4552 10.3248 10.1898 10.4348 9.91304 10.4348H5.21739C4.94064 10.4348 4.67523 10.3248 4.47954 10.1292C4.28385 9.93346 4.17391 9.66805 4.17391 9.3913C4.17391 9.11456 4.28385 8.84914 4.47954 8.65345C4.67523 8.45776 4.94064 8.34783 5.21739 8.34783ZM5.21739 14.6087C4.94064 14.6087 4.67523 14.4988 4.47954 14.3031C4.28385 14.1074 4.17391 13.842 4.17391 13.5652C4.17391 13.2885 4.28385 13.0231 4.47954 12.8274C4.67523 12.6317 4.94064 12.5217 5.21739 12.5217H8.34783C8.62457 12.5217 8.88999 12.6317 9.08568 12.8274C9.28137 13.0231 9.3913 13.2885 9.3913 13.5652C9.3913 13.842 9.28137 14.1074 9.08568 14.3031C8.88999 14.4988 8.62457 14.6087 8.34783 14.6087H5.21739ZM21.913 20.3843C21.9117 20.7894 21.7502 21.1774 21.4638 21.4638C21.1774 21.7502 20.7894 21.9117 20.3843 21.913H8.83304C8.42803 21.9117 8.04 21.7502 7.75361 21.4638C7.46722 21.1774 7.30572 20.7894 7.30435 20.3843V18.7826H15.167C16.1255 18.7812 17.0443 18.3999 17.7221 17.7221C18.3999 17.0443 18.7812 16.1255 18.7826 15.167V7.30435H20.3843C20.7894 7.30572 21.1774 7.46722 21.4638 7.75361C21.7502 8.04 21.9117 8.42803 21.913 8.83304V20.3843Z" fill="#3F5163"/>
</svg>
