<svg width="23" height="18" viewBox="0 0 23 18" fill="none" xmlns="http://www.w3.org/2000/svg">
<path d="M22 1.00897C21.0859 1.61128 20.0738 2.07195 19.0027 2.37324C18.4278 1.75576 17.6638 1.3181 16.814 1.11947C15.9642 0.920833 15.0695 0.970799 14.2511 1.26261C13.4326 1.55442 12.7299 2.07399 12.2378 2.75105C11.7458 3.42812 11.4883 4.23001 11.5 5.04827V5.93995C9.82251 5.98058 8.16031 5.63305 6.66142 4.92829C5.16253 4.22354 3.87348 3.18345 2.90909 1.90065C2.90909 1.90065 -0.909091 9.92575 7.68182 13.4925C5.71596 14.739 3.3741 15.364 1 15.2758C9.59091 19.7342 20.0909 15.2758 20.0909 5.02152C20.09 4.77315 20.0645 4.52539 20.0145 4.28143C20.9888 3.38395 21.6762 2.25082 22 1.00897V1.00897Z" stroke="#3F5163" stroke-width="2" stroke-linecap="round" stroke-linejoin="round"/>
</svg>
