<svg width="63" height="63" viewBox="0 0 63 63" fill="none" xmlns="http://www.w3.org/2000/svg">
<path d="M63 13.8479H0V6.39459C0 2.86853 2.86853 0 6.39459 0H56.606C60.1315 0 63 2.86853 63 6.39459V13.8479ZM2.625 11.2229H60.375V6.39459C60.375 4.31561 58.6844 2.625 56.606 2.625H6.39459C4.31625 2.625 2.625 4.31561 2.625 6.39459V11.2229Z" fill="#3F5163"/>
<path d="M56.606 62.9998H6.39459C2.86853 62.9998 0 60.1312 0 56.6064V11.2227H63V56.6064C63 60.1312 60.1315 62.9998 56.606 62.9998ZM2.625 13.8477V56.6064C2.625 58.6841 4.31625 60.3748 6.39459 60.3748H56.606C58.6844 60.3748 60.375 58.6841 60.375 56.6064V13.8477H2.625Z" fill="#3F5163"/>
<path d="M9.69531 5.61133H7.07031V8.23633H9.69531V5.61133Z" fill="#3F5163"/>
<path d="M15.1523 5.61133H12.5273V8.23633H15.1523V5.61133Z" fill="#3F5163"/>
<path d="M20.6104 5.61133H17.9854V8.23633H20.6104V5.61133Z" fill="#3F5163"/>
<path d="M55.9306 5.61133H24.5479V8.23633H55.9306V5.61133Z" fill="#3F5163"/>
<path d="M49.6895 44.1017H47.0645C47.0645 36.742 41.8402 30.3333 34.6426 28.8632L35.1681 26.292C43.5821 28.0095 49.6895 35.5 49.6895 44.1017Z" fill="#3F5163"/>
<path d="M15.96 44.1024H13.335C13.335 35.5045 19.4399 28.0153 27.8506 26.2939L28.3774 28.8651C21.1824 30.3378 15.96 36.7452 15.96 44.1024Z" fill="#3F5163"/>
<path d="M48.3748 25.9248H35.0967V28.5498H48.3748V25.9248Z" fill="#3F5163"/>
<path d="M28.1266 25.9248H14.6504V28.5498H28.1266V25.9248Z" fill="#3F5163"/>
<path d="M50.9746 31.1748C48.8033 31.1748 47.0371 29.4086 47.0371 27.2373C47.0371 25.066 48.8033 23.2998 50.9746 23.2998C53.1459 23.2998 54.9121 25.066 54.9121 27.2373C54.9121 29.4086 53.1459 31.1748 50.9746 31.1748ZM50.9746 25.9248C50.2511 25.9248 49.6621 26.5131 49.6621 27.2373C49.6621 27.9615 50.2511 28.5498 50.9746 28.5498C51.6982 28.5498 52.2871 27.9615 52.2871 27.2373C52.2871 26.5131 51.6982 25.9248 50.9746 25.9248Z" fill="#3F5163"/>
<path d="M12.0254 31.1748C9.85413 31.1748 8.08789 29.4086 8.08789 27.2373C8.08789 25.066 9.85413 23.2998 12.0254 23.2998C14.1967 23.2998 15.9629 25.066 15.9629 27.2373C15.9629 29.4086 14.1967 31.1748 12.0254 31.1748ZM12.0254 25.9248C11.3018 25.9248 10.7129 26.5131 10.7129 27.2373C10.7129 27.9615 11.3018 28.5498 12.0254 28.5498C12.7489 28.5498 13.3379 27.9615 13.3379 27.2373C13.3379 26.5131 12.7489 25.9248 12.0254 25.9248Z" fill="#3F5163"/>
<path d="M36.2102 31.9345H26.8145V22.5381H36.2102V31.9345ZM29.4395 29.3095H33.5852V25.1631H29.4395V29.3095Z" fill="#3F5163"/>
<path d="M19.3492 51.6852H9.9541V42.29H19.3492V51.6852ZM12.5791 49.0602H16.7242V44.915H12.5791V49.0602Z" fill="#3F5163"/>
<path d="M53.0745 51.6852H43.6787V42.29H53.0745V51.6852ZM46.3037 49.0602H50.4495V44.915H46.3037V49.0602Z" fill="#3F5163"/>
</svg>
