<svg width="66" height="66" viewBox="0 0 66 66" fill="none" xmlns="http://www.w3.org/2000/svg">
<path d="M59.8251 0.000134915H17.1599C13.8358 0.000134915 11.2574 2.50187 10.9877 5.68116C8.0021 5.95269 5.63003 8.18289 5.35768 11.1592C2.306 11.5652 0 14.0669 0 17.2461V59.8471C0 63.2953 2.7132 66 6.17216 66H48.8401C50.5352 66 52.0955 65.3225 53.2484 64.1072C54.2665 63.0923 54.8087 61.8085 54.9435 60.456C56.3001 60.2531 57.6567 59.6441 58.6061 58.6292C59.6242 57.5483 60.2351 56.2619 60.3012 54.7751C61.7926 54.6406 63.1492 54.0316 64.2361 52.9482C65.3891 51.7989 66 50.2435 66 48.6196L65.9974 6.15289C65.9974 2.70473 63.2841 0.000134915 59.8251 0.000134915ZM17.1599 2.02737H59.8279C62.1338 2.02737 63.9664 3.85423 63.9664 6.15303V16.0257H13.021V6.15303C13.021 3.8543 14.8512 2.02737 17.1599 2.02737ZM17.1599 52.8799C14.8539 52.8799 13.0213 51.0531 13.0213 48.7543V18.0559H30.9985V52.8804L17.1599 52.8799ZM48.8378 64.0388H6.16979C3.86386 64.0388 2.03121 62.212 2.03121 59.9132V17.3122C2.03121 15.2824 3.45659 13.6611 5.35531 13.2551V54.4375C5.35531 57.8857 8.06851 60.5904 11.5275 60.5904H52.9051C52.7703 61.4023 52.4291 62.1458 51.8209 62.8206C51.009 63.5641 49.9907 64.0388 48.8378 64.0388ZM54.1954 58.5608H11.5275C9.22154 58.5608 7.38889 56.7339 7.38889 54.4352V11.8342C7.38889 9.73839 8.94913 7.9801 10.9853 7.7771V48.757C10.9853 52.2052 13.6985 54.9099 17.1575 54.9099H58.3314C58.2626 55.7878 57.8554 56.6683 57.1784 57.3432C56.3666 58.0866 55.3484 58.5608 54.1954 58.5608ZM62.8114 51.6616C61.9969 52.4736 60.9788 52.8796 59.8257 52.8796H33.0323V18.0551H63.9641V48.688C63.9641 49.8374 63.5571 50.8523 62.8114 51.6616Z" fill="#3F5163"/>
</svg>
