<svg width="24" height="18" viewBox="0 0 24 18" fill="none" xmlns="http://www.w3.org/2000/svg">
<path d="M22.5395 3.41987C22.4207 2.94531 22.1788 2.51049 21.8382 2.15935C21.4976 1.8082 21.0703 1.55316 20.5996 1.41998C18.8797 1 12 1 12 1C12 1 5.12039 1 3.40048 1.45998C2.92975 1.59315 2.5025 1.8482 2.16189 2.19934C1.82128 2.55049 1.57936 2.98531 1.46058 3.45987C1.14581 5.20534 0.991839 6.976 1.0006 8.7496C0.989382 10.5365 1.14336 12.3207 1.46058 14.0793C1.59153 14.5391 1.83887 14.9574 2.17868 15.2937C2.5185 15.6301 2.93932 15.873 3.40048 15.9992C5.12039 16.4592 12 16.4592 12 16.4592C12 16.4592 18.8797 16.4592 20.5996 15.9992C21.0703 15.866 21.4976 15.611 21.8382 15.2599C22.1788 14.9087 22.4207 14.4739 22.5395 13.9993C22.8518 12.267 23.0058 10.5098 22.9995 8.7496C23.0107 6.96265 22.8567 5.17848 22.5395 3.41987V3.41987Z" stroke="#3F5163" stroke-width="2" stroke-linecap="round" stroke-linejoin="round"/>
<path d="M9.75009 12.0194L15.4998 8.74957L9.75009 5.47974V12.0194Z" stroke="#3F5163" stroke-width="2" stroke-linecap="round" stroke-linejoin="round"/>
</svg>
